<?xml version="1.0" encoding="utf-8"?>
<!-- Generator: Adobe Illustrator 16.0.3, SVG Export Plug-In . SVG Version: 6.00 Build 0)  -->
<!DOCTYPE svg PUBLIC "-//W3C//DTD SVG 1.1//EN" "http://www.w3.org/Graphics/SVG/1.1/DTD/svg11.dtd">
<svg version="1.1" id="Layer_1" xmlns="http://www.w3.org/2000/svg" xmlns:xlink="http://www.w3.org/1999/xlink" x="0px" y="0px"
	 width="112px" height="128px" viewBox="0 0 112 128" enable-background="new 0 0 112 128" xml:space="preserve">
<path fill="#FA9C1E" d="M97.253,58.134c-3.19-1.93-10.505-4.589-12.871-1.9c1.366,1.737,3.011,3.237,4.865,4.439
	c0,0-4,0.9-6.81,0.006c-2.299-0.006-5.748-0.975-9.52-3.014c0,0-2.662,0.647-3.672,2.484c0.224,0.827,0.295,1.687,0.21,2.539
	c0,0-2.019,0.35-4.28-1.894c-0.795,0.162-1.686,0.158-4.588,2.052l-2.6-0.274l1.183-2.307c0,0,4.129-1.565,4.256-2.746
	c0,0-0.899-3.472,0.759-4.575c0.67,0.132,0.449,0.776,1.342,1.3c0.894,0.524,3.135,0.042,4.461-2.273
	c0.443-2.177-0.234-7.7,2.361-10.891c1.705-2.682,2.18-3.4,3.139-4.172c0,0,0.265,5.832,1.43,6.565c0,0,5.068-3.141,4.6-12.4
	c-0.469-9.259,0.769-10.573,5.025-13.837c0,0,1.137-0.211,5.922,4.347c0,0,1.161,12.114-1.977,18.207l-2.9,4.846
	c0.02,0.59,0.332,1.131,0.834,1.441c1.888-0.321,3.813-0.359,5.711-0.112c2.985,0.423,7.532,1.5,16.73,7.284
	c0,0,1.436,6.192,0.957,7.8C111.823,61.046,104.379,64.816,97.253,58.134z M106.402,44.515c-0.741-0.386-7.006-4.684-9.024-4.334
	c0,0,1.5-4.7,0.394-13.009c0.055-0.375,0.264-0.71,0.576-0.923c4.692,0.768,9.146,2.598,13.023,5.351
	c0.545,6.188,0.75,5.774-1.462,14.363c-1.236-0.302-2.42-0.79-3.509-1.448H106.402z M71.55,25.455
	c-3.271,1.791-9.237,6.781-8.082,10.172c2.19-0.312,4.313-0.981,6.286-1.983c0,0-1.219,3.9-3.4,5.886
	c-1.153,1.983-3.72,4.478-7.375,6.717c0,0-0.771,2.623,0.32,4.414c0.829,0.22,1.611,0.588,2.309,1.088c0,0-0.707,1.919-3.783,2.751
	c-0.258,0.768-0.706,1.535-0.514,4.99l-1.54,2.11l-1.411-2.174c0,0,0.706-4.35-0.257-5.054c0,0-3.464-0.96-3.592-2.943
	c0.449-0.512,0.9,0,1.8-0.512s1.6-2.687,0.257-4.99c-1.668-1.471-6.8-3.646-8.274-7.485c-1.475-2.815-1.86-3.583-2.053-4.8
	c0,0,5.2,2.687,6.414,2.047c0,0-0.193-5.95-8.467-10.172S31.4,19.57,30.691,14.26c0,0,0.385-1.088,6.735-2.943
	c0,0,11.1,5.054,14.817,10.812L55,27.055c0.521,0.278,1.146,0.278,1.668,0c0.665-1.792,1.595-3.474,2.758-4.99
	c1.86-2.367,5.067-5.758,14.689-10.812c0,0,6.094,1.855,7.248,3.071C81.363,14.324,80.915,22.641,71.55,25.455z M56.028,16.371
	c0,0-3.335-3.647-11.1-6.845c-0.299-0.233-0.485-0.582-0.513-0.96c3.018-3.672,6.837-6.604,11.164-8.572
	c5.646,2.623,5.388,2.239,11.737,8.445c-0.882,0.916-1.898,1.691-3.015,2.3C63.6,11.189,56.732,14.452,56.028,16.371z
	 M35.091,43.524c1.165-0.733,1.43-6.565,1.43-6.565c0.959,0.774,1.433,1.49,3.139,4.172c2.595,3.194,1.917,8.714,2.361,10.891
	c1.326,2.315,3.567,2.793,4.46,2.273s0.673-1.164,1.342-1.3c1.658,1.1,0.759,4.575,0.759,4.575c0.13,1.183,4.259,2.749,4.259,2.749
	l1.183,2.307l-2.6,0.274c-2.9-1.893-3.794-1.889-4.588-2.052c-2.261,2.244-4.28,1.894-4.28,1.894
	c-0.085-0.852-0.014-1.713,0.21-2.539c-1.01-1.838-3.672-2.484-3.672-2.484c-3.772,2.039-7.221,3.008-9.52,3.014
	c-2.812,0.892-6.809-0.006-6.809-0.006c1.854-1.202,3.498-2.702,4.865-4.439c-2.366-2.693-9.681-0.034-12.871,1.9
	C7.629,64.873,0.185,61.1,0.185,61.1c-0.478-1.605,0.958-7.8,0.958-7.8c9.2-5.785,13.745-6.861,16.73-7.284
	c1.898-0.247,3.823-0.209,5.711,0.112c0.501-0.311,0.814-0.852,0.834-1.441l-2.9-4.846c-3.138-6.093-1.977-18.207-1.977-18.207
	c4.786-4.558,5.922-4.347,5.922-4.347c4.257,3.264,5.5,4.571,5.028,13.831C30.019,40.378,35.091,43.524,35.091,43.524z M5.606,44.57
	c-1.088,0.66-2.271,1.149-3.506,1.453c-2.213-8.589-2.008-8.175-1.463-14.363c3.875-2.756,8.33-4.589,13.023-5.36
	c0.313,0.213,0.522,0.548,0.576,0.923c-1.1,8.3,0.394,13.009,0.394,13.009C12.612,39.887,6.347,44.185,5.606,44.57z M14.706,69.548
	c7.8,5.037,13.064,2.229,13.064,2.229c-0.054-1.373-4.984-4.519-4.984-4.519c1.151-0.442,2.01-0.493,5.192-0.626
	c4.07-0.645,8.524,2.7,10.635,3.406c2.673,0.012,4.208-1.686,4.2-2.717c-0.008-1.032-0.673-1.164-0.454-1.809
	c1.786-0.881,4.351,1.633,4.351,1.633c1.092,0.479,4.516-2.306,4.516-2.306l2.594,0.132l-1.063,2.385
	c-3.1,1.562-3.537,2.334-4.075,2.938c0.818,3.076-0.5,4.646-0.5,4.646c-0.782-0.354-1.494-0.845-2.1-1.451
	c-2.1-0.047-3.992,1.93-3.992,1.93c-0.116,4.278-1,7.742-2.143,9.73c-0.631,2.877-3.41,5.881-3.41,5.881
	c-0.116-2.204-0.594-4.373-1.417-6.422c-3.521,0.701-4.87,8.347-4.789,12.068c2.239,9.5-4.757,14.045-4.757,14.045
	c-1.633-0.39-6.29-4.727-6.29-4.727c-0.423-10.839,0.917-15.305,2.041-18.1c0.735-1.765,1.73-3.409,2.953-4.879
	c-0.02-0.589-0.333-1.13-0.834-1.44l-5.655,0.08c-6.859-0.335-16.794-7.4-16.794-7.4c-1.564-6.414-0.813-7.29-0.813-7.29
	C5.144,64.932,6.9,64.511,14.7,69.548H14.706z M3.192,81.646c6.658,5.105,11.491,6.164,11.491,6.164
	c-1.313,1.568-0.714,9.129-0.75,9.963c0.028,1.27-0.138,2.536-0.492,3.756c-8.562-2.383-8.1-2.354-13.2-5.918
	c-0.455-4.725,0.181-9.49,1.859-13.93C2.443,81.518,2.839,81.504,3.192,81.646z M40.185,102.48
	c8.274-4.223,8.467-10.172,8.467-10.172c-1.219-0.64-6.414,2.047-6.414,2.047c0.192-1.215,0.577-1.982,2.053-4.799
	c1.475-3.839,6.607-6.015,8.274-7.486c1.347-2.299,0.641-4.478-0.257-4.989c-0.898-0.513-1.347,0-1.8-0.513
	c0.128-1.982,3.592-2.942,3.592-2.942c0.962-0.7,0.257-5.054,0.257-5.054l1.414-2.172l1.54,2.11
	c-0.192,3.455,0.256,4.222,0.513,4.99c3.079,0.832,3.784,2.751,3.784,2.751c-0.697,0.499-1.479,0.867-2.308,1.087
	c-1.09,1.791-0.321,4.414-0.321,4.414c3.656,2.239,6.223,4.733,7.377,6.717c2.181,1.983,3.399,5.886,3.399,5.886
	c-1.972-1.001-4.096-1.671-6.286-1.982c-1.154,3.391,4.811,8.38,8.082,10.172c9.365,2.814,9.814,11.131,9.814,11.131
	c-1.155,1.217-7.248,3.071-7.248,3.071c-9.621-5.054-12.828-8.445-14.689-10.812c-1.163-1.517-2.093-3.199-2.758-4.99
	c-0.521-0.278-1.146-0.278-1.668,0l-2.758,4.926c-3.72,5.758-14.817,10.813-14.817,10.813c-6.35-1.855-6.735-2.943-6.735-2.943
	C31.4,108.43,31.91,106.7,40.185,102.48z M56.028,111.629c0.707,1.919,7.57,5.182,8.274,5.63c1.116,0.609,2.133,1.385,3.015,2.3
	c-6.35,6.2-6.094,5.822-11.737,8.444c-4.326-1.968-8.144-4.899-11.161-8.571c0.028-0.379,0.215-0.727,0.513-0.961
	C52.692,115.275,56.028,111.629,56.028,111.629z M81.678,96.729c0.081-3.722-1.269-11.369-4.789-12.067
	c-0.825,2.048-1.305,4.218-1.422,6.422c0,0-2.777-3-3.41-5.88c-1.144-1.989-2.027-5.453-2.143-9.73c0,0-1.893-1.977-3.992-1.931
	c-0.605,0.609-1.316,1.104-2.099,1.458c0,0-1.313-1.568-0.5-4.645c-0.538-0.606-0.98-1.377-4.075-2.938l-1.063-2.386l2.594-0.133
	c0,0,3.428,2.783,4.521,2.302c0,0,2.565-2.513,4.351-1.632c0.221,0.644-0.448,0.775-0.453,1.808
	c-0.006,1.032,1.531,2.729,4.199,2.717c2.111-0.704,6.565-4.051,10.636-3.405c3.181,0.133,4.04,0.184,5.192,0.625
	c0,0-4.931,3.146-4.984,4.519c0,0,5.261,2.808,13.064-2.229c7.803-5.037,9.559-4.617,14.521-2.572c0,0,0.751,0.877-0.813,7.291
	c0,0-9.937,7.06-16.795,7.399l-5.654-0.079c-0.502,0.311-0.814,0.851-0.834,1.44c1.222,1.47,2.217,3.114,2.953,4.878
	c1.125,2.791,2.465,7.257,2.041,18.1c0,0-4.658,4.338-6.291,4.727c0.002-0.008-6.994-4.553-4.756-14.051V96.729z M108.816,81.7
	c0.353-0.142,0.748-0.128,1.09,0.036c1.679,4.439,2.315,9.205,1.861,13.93c-5.1,3.564-4.638,3.535-13.199,5.918
	c-0.355-1.22-0.521-2.486-0.492-3.756c-0.036-0.834,0.563-8.395-0.75-9.963C97.326,87.866,102.159,86.807,108.816,81.7z"/>
</svg>
