<?xml version="1.0" encoding="utf-8"?>
<!-- Generator: Adobe Illustrator 16.0.3, SVG Export Plug-In . SVG Version: 6.00 Build 0)  -->
<!DOCTYPE svg PUBLIC "-//W3C//DTD SVG 1.1//EN" "http://www.w3.org/Graphics/SVG/1.1/DTD/svg11.dtd">
<svg version="1.1" id="Layer_1" xmlns="http://www.w3.org/2000/svg" xmlns:xlink="http://www.w3.org/1999/xlink" x="0px" y="0px"
	 width="146px" height="128px" viewBox="0 0 146 128" enable-background="new 0 0 146 128" xml:space="preserve">
<path fill="#FA9C1E" d="M137.457,44.218c-4.713-0.005-8.528-3.83-8.523-8.543c0.006-4.712,3.83-8.528,8.543-8.523
	c4.709,0.006,8.523,3.824,8.523,8.533C145.997,40.4,142.172,44.221,137.457,44.218z M131.457,57.618
	c-0.131,0.086-0.27,0.161-0.414,0.223l0.2,0.343c-18.724,7.604-23.943,18.175-29.509,26.375
	C96.168,92.757,86.2,123.345,86.2,123.345L83.1,124.9c0.617-13.5,3.234-26.834,7.767-39.564
	c11.345-36.135,28.024-41.153,31.272-41.8c2.148-1.4,5.963,0.6,8.534,4.472c2.572,3.872,2.927,8.186,0.787,9.608L131.457,57.618z
	 M94.745,49.649c-16.952,37.324-18.638,77.576-18.638,77.576L69.894,128c-0.555-49.65,3.815-59.857,8.543-75.248
	c13.399-39.875,25.234-48.443,26.957-49.516C107.361,1.135,110.122-0.041,113,0c5.361,0,9.707,3.82,9.707,8.533
	c-0.037,2.458-1.191,4.765-3.137,6.268C106.659,28.21,106.493,28.626,94.745,49.649z M63.681,52.749
	c-5.999-0.006-10.856-4.874-10.85-10.872c0.006-5.998,4.874-10.856,10.872-10.85c5.995,0.006,10.852,4.869,10.85,10.864
	c-0.002,6.001-4.87,10.864-10.871,10.861c0,0-0.001,0-0.001,0V52.749z M59.8,116.364c-2.429-23.038-10.47-39.3-24.851-63.613
	C24.391,38.407,19.036,32.359,17.536,30.734c-1.215-0.792-1.963-2.132-2-3.582c0-2.571,2.434-4.654,5.436-4.654
	c1.861-0.041,3.621,0.842,4.7,2.359c10.288,7.388,15.026,14.551,25.585,31c10.574,16.471,12.426,63.613,12.426,63.613L59.8,116.364z
	 M21.937,52.82c24.428,8.2,32.425,61.216,32.425,61.216l-2.33-1.552C37.017,71.261,17.085,62.836,17.085,62.836l0.079-0.171
	c-2.623-0.416-4.598-2.608-4.738-5.26c0-3,2.782-5.43,6.213-5.43C19.792,51.974,20.927,52.264,21.937,52.82z M6.6,52.752
	c-3.642-0.003-6.591-2.958-6.588-6.6c0.003-3.642,2.958-6.591,6.6-6.588c3.64,0.003,6.588,2.955,6.588,6.594
	C13.197,49.801,10.243,52.752,6.6,52.752z"/>
</svg>
