<?xml version="1.0" encoding="utf-8"?>
<!-- Generator: Adobe Illustrator 16.0.3, SVG Export Plug-In . SVG Version: 6.00 Build 0)  -->
<!DOCTYPE svg PUBLIC "-//W3C//DTD SVG 1.1//EN" "http://www.w3.org/Graphics/SVG/1.1/DTD/svg11.dtd">
<svg version="1.1" id="Layer_1" xmlns="http://www.w3.org/2000/svg" xmlns:xlink="http://www.w3.org/1999/xlink" x="0px" y="0px"
	 width="161px" height="128px" viewBox="0 0 161 128" enable-background="new 0 0 161 128" xml:space="preserve">
<path fill="#2797e8" d="M75.912,128c-31.3,0.178-43.712-8.166-59.228-20.078S0,81.486,0,75.294
	c5.838-57.322,59.092-46.179,65.9-45.176c2.74-13.91-4.171-27.608-4.171-27.608L84.254,0c6.23,12.427,3.337,26.771,3.337,26.771
	C135.2,19.812,159.938,47.756,161,74.458C157.107,124.771,107.215,127.822,75.912,128z M32.534,50.2
	c-0.014,8.752,4.375,16.925,11.678,21.748c4.24,0.308,14.536-0.175,20.021-5.856C64.233,66.092,45.252,58.14,32.534,50.2z
	 M128.466,50.2c-5.286,7.411-29.2,17.569-29.2,17.569c6.725,5.681,16.616,4.489,20.855,4.183
	C128.787,65.782,128.466,50.2,128.466,50.2z M110.246,93.439l-4.301,8.629L102.62,95.4c-6.858,1.43-13.871,1.982-20.869,1.646
	c-7.31-0.348-13.222-0.817-18.226-1.5l-5.131,7.354L54.2,93.787C43.519,91.042,37.16,86.309,25.86,77.8
	c0,0,9.263,25.484,27.528,30.118c0,0,11.547,4.8,41.709,4.184c14.771-2.568,27.729-7.147,39.209-30.955
	c0,0.004-8.83,7.564-24.061,12.289V93.439z"/>
</svg>
