<?xml version="1.0" encoding="utf-8"?>
<!-- Generator: Adobe Illustrator 16.0.3, SVG Export Plug-In . SVG Version: 6.00 Build 0)  -->
<!DOCTYPE svg PUBLIC "-//W3C//DTD SVG 1.1//EN" "http://www.w3.org/Graphics/SVG/1.1/DTD/svg11.dtd">
<svg version="1.1" id="Layer_1" xmlns="http://www.w3.org/2000/svg" xmlns:xlink="http://www.w3.org/1999/xlink" x="0px" y="0px"
	 width="128px" height="128px" viewBox="0 0 128 128" enable-background="new 0 0 128 128" xml:space="preserve">
<path fill="#FA9C1E" d="M101.275,52.1c8.252,25.638-5.843,53.111-31.48,61.363c-12.037,3.874-25.106,2.922-36.454-2.656L30.476,128
	l-3.492-20.952c-7.113-4.964-12.78-11.728-16.422-19.6L0,85.333h9.661c-10.094-24.973,1.967-53.4,26.94-63.494
	c12.705-5.135,26.983-4.689,39.342,1.229L79.238,0l3.906,27.341c6.428,4.593,11.649,10.671,15.222,17.717L128,48.762L101.275,52.1z
	 M89.5,55.328c-1.563,2.43-3.938,4.227-6.7,5.072l-3.562,24.933L75.68,60.421c-3.549-1.089-6.408-3.732-7.773-7.183l-31.335-4.476
	l31.357-4.48c1.107-2.799,3.208-5.09,5.9-6.435l0.271-1.872c-17.134-10.65-39.657-5.395-50.308,11.74
	c-7.13,11.47-7.349,25.938-0.571,37.618H25.6l4.876-24.381l4.876,24.381h31.7l-30.577,5.101c0.187,0.963,0.113,1.958-0.214,2.883
	l-0.791,4.721c17.113,10.715,39.672,5.528,50.387-11.585C91.682,77.15,93.02,65.724,89.5,55.328z"/>
</svg>
