<?xml version="1.0" encoding="utf-8"?>
<!-- Generator: Adobe Illustrator 16.0.3, SVG Export Plug-In . SVG Version: 6.00 Build 0)  -->
<!DOCTYPE svg PUBLIC "-//W3C//DTD SVG 1.1//EN" "http://www.w3.org/Graphics/SVG/1.1/DTD/svg11.dtd">
<svg version="1.1" id="Layer_1" xmlns="http://www.w3.org/2000/svg" xmlns:xlink="http://www.w3.org/1999/xlink" x="0px" y="0px"
	 width="128px" height="128px" viewBox="0 0 128 128" enable-background="new 0 0 128 128" xml:space="preserve">
<path fill="#FFFFFF" d="M87.251,12.421c-18.015,2.4-29.756,18.593-24.59,30.3c5.009,8.729,3.521,7.188,11.938,16.918
	s17.439,30.021-0.699,45.1c-4.508,4.237-10.73,4.671-16.159,7.048c-5.429,2.377-6.876,5.839-9.834,16.213
	c0,0-2.549-10.082-18.267-18.323c-11.957-7.612-22-17.3-27.4-31.714c-5.4-14.414-0.3-25.435,7.728-32.419
	c0,0-7.208-1.285-4.918-8.457c1.977-2.771,0.923-3.156,10.539-6.343L9.968,23.7l7.026-1.409c0,0-5.87-5.2,1.405-9.866
	s15.474-0.377,17.564,2.114c2.09,2.491,6.874,2.916,5.621-2.114c0,0,8.994,6.462,2.81,12.686c-3.833,3.866-9.133,0.7-9.133,0.7
	s2.561,4.584-3.513,15.5c-6.074,10.916,1.765,22.7,10.539,23.962c8.774,1.262,21.491-3.69,18.266-11.273
	c-3.225-7.583-7.859-13.756-5.621-26.78C57.17,14.196,75.193,1.145,85.143,0.44c9.95-0.705,27.213-3.9,39.344,27.485
	C124.486,27.926,112.473,8.759,87.251,12.421z M68.282,110.381c11.924-5.486,22.237-11.443,21.077-27.48
	c-2.571-15.57-8.432-23.961-8.432-23.961s-8.216-14.168,0.7-26.78c8.916-12.612,17.694-11.359,25.295-10.576
	s12.646,7.048,12.646,7.048s-14.351-6.823-26,4.933c0,0,13.512-5.049,23.186,7.047C126.428,52.707,127.373,65.383,128,71.62
	c0,0-7.043-16.178-22.482-16.209c-9.328-0.188-11.242,9.866-11.242,9.866s5.809-10.684,15.457-1.409
	c5.418,5.659,5.192,6.188,6.324,13.39c0,0-4.801-9.974-12.646-7.752c-7.846,2.223-7.729,14.1-7.729,14.1s0.729,22.522-18.969,26.78
	c-12.02,4.573-17.437,7.438-21.78,12.687C54.932,123.066,56.357,115.869,68.282,110.381L68.282,110.381z"/>
</svg>
